<?xml version="1.0" encoding="UTF-8" standalone="no"?>
<!-- Created with Inkscape (http://www.inkscape.org/) -->

<svg
   width="210mm"
   height="297mm"
   viewBox="0 0 210 297"
   version="1.1"
   id="svg1"
   xml:space="preserve"
   inkscape:version="1.4 (86a8ad7, 2024-10-11)"
   sodipodi:docname="icon_watcher.svg"
   inkscape:export-filename="icon_watcher.png"
   inkscape:export-xdpi="96"
   inkscape:export-ydpi="96"
   xmlns:inkscape="http://www.inkscape.org/namespaces/inkscape"
   xmlns:sodipodi="http://sodipodi.sourceforge.net/DTD/sodipodi-0.dtd"
   xmlns="http://www.w3.org/2000/svg"
   xmlns:svg="http://www.w3.org/2000/svg"><sodipodi:namedview
     id="namedview1"
     pagecolor="#ffffff"
     bordercolor="#000000"
     borderopacity="0.25"
     inkscape:showpageshadow="2"
     inkscape:pageopacity="0.0"
     inkscape:pagecheckerboard="0"
     inkscape:deskcolor="#d1d1d1"
     inkscape:document-units="mm"
     showguides="true"
     inkscape:zoom="0.74898461"
     inkscape:cx="307.08241"
     inkscape:cy="453.28034"
     inkscape:window-width="2560"
     inkscape:window-height="1369"
     inkscape:window-x="-8"
     inkscape:window-y="-8"
     inkscape:window-maximized="1"
     inkscape:current-layer="layer1" /><defs
     id="defs1" /><g
     inkscape:label="Layer 1"
     inkscape:groupmode="layer"
     id="layer1"><g
       id="g22"
       transform="translate(-73.35142,2.3108705)"
       inkscape:export-filename="icon_watcher.png"
       inkscape:export-xdpi="96"
       inkscape:export-ydpi="96"><rect
         style="fill:#ffffff;stroke:none;stroke-width:0.470786;stroke-linejoin:round;paint-order:stroke markers fill"
         id="rect22"
         width="50.799999"
         height="50.799999"
         x="110.01954"
         y="112.51431" /><path
         id="path14"
         style="fill:#aa0000;stroke-width:0.25549;stroke-linejoin:round;paint-order:stroke markers fill"
         d="m 110.01954,112.51431 v 50.8 h 2.4784 c -0.58697,-1.21028 -0.8909,-2.5573 -0.8909,-4.65966 0,-3.90382 1.01209,-5.21873 3.03599,-7.8481 4.04115,-5.25011 10.81838,-11.2019 20.77651,-11.2019 9.95815,0 16.73529,5.95179 20.77651,11.2019 2.02383,2.62937 3.03599,3.94428 3.03599,7.8481 0,2.10236 -0.30391,3.44938 -0.8909,4.65966 h 2.4784 v -50.8 z m 9.62525,1.19734 c 2.00313,0 3.576,0.58598 4.71858,1.75803 1.1498,1.17205 2.00322,2.97185 2.56005,5.39967 l -4.33927,1.39734 c -0.15186,-0.70114 -0.31064,-1.21401 -0.47697,-1.53841 -0.27479,-0.54417 -0.611,-0.96273 -1.00873,-1.25574 -0.39773,-0.29302 -0.84253,-0.43977 -1.33428,-0.43977 -1.11365,0 -1.96706,0.64903 -2.56005,1.94666 -0.44835,0.96276 -0.67283,2.47511 -0.67283,4.53667 0,2.5534 0.26792,4.30579 0.80305,5.25808 0.53513,0.94183 1.28717,1.41283 2.25619,1.41283 0.9401,0 1.64869,-0.38174 2.12597,-1.14567 0.48451,-0.76393 0.83519,-1.87336 1.05213,-3.32796 l 4.3062,1.88361 c -0.28926,1.74762 -0.74441,3.20753 -1.36632,4.37958 -0.6219,1.17206 -1.39568,2.05657 -2.32131,2.65306 -0.9184,0.59649 -2.08991,0.89452 -3.51451,0.89452 -1.72833,0 -3.14242,-0.36107 -4.24161,-1.08314 -1.09195,-0.73253 -2.03537,-2.01443 -2.83083,-3.84576 -0.79547,-1.83133 -1.19321,-4.17524 -1.19321,-7.03212 0,-3.80917 0.69773,-6.73403 2.09341,-8.77466 1.40291,-2.05109 3.38439,-3.07682 5.94434,-3.07682 z m 8.00262,0.39223 h 6.46472 l 2.49494,14.00224 2.48408,-14.00224 h 6.44354 v 23.01203 h -4.01371 v -17.54932 l -3.11299,17.54932 h -3.63389 l -3.10265,-17.54932 v 17.54932 h -4.02404 z m 20.33571,0 h 10.48928 v 5.10201 h -7.10448 l -0.37982,3.45302 c 0.49174,-0.33488 0.97638,-0.586 1.45366,-0.75344 0.48451,-0.16743 0.96139,-0.25115 1.43143,-0.25115 1.59093,0 2.88192,0.69592 3.87264,2.08773 0.99071,1.39182 1.48621,3.14471 1.48621,5.25859 0,1.48599 -0.25705,2.91465 -0.77049,4.28553 -0.5062,1.37089 -1.22929,2.41727 -2.16938,3.13934 -0.93286,0.72207 -2.12972,1.08314 -3.59048,1.08314 -1.04857,0 -1.94854,-0.1412 -2.70061,-0.42375 -0.74485,-0.29301 -1.38154,-0.72216 -1.90944,-1.28726 -0.52066,-0.57556 -0.94376,-1.22458 -1.26918,-1.94665 -0.32542,-0.72207 -0.59643,-1.62171 -0.81338,-2.69958 l 4.46897,-0.70641 c 0.10847,1.03602 0.36191,1.82571 0.75965,2.36988 0.39773,0.5337 0.87099,0.80098 1.42058,0.80098 0.61468,0 1.12104,-0.33535 1.51877,-1.0051 0.40496,-0.68021 0.60772,-1.68979 0.60772,-3.02928 0,-1.37088 -0.20276,-2.37541 -0.60772,-3.01376 -0.40496,-0.63835 -0.94339,-0.95757 -1.61592,-0.95757 -0.42666,0 -0.83889,0.15179 -1.23662,0.45527 -0.29649,0.21976 -0.62234,0.61713 -0.97668,1.19269 l -3.7636,-0.78445 z m -12.56358,35.62108 c -4.93174,0 -8.92969,3.99795 -8.92969,8.92969 0,1.71011 0.48927,3.30187 1.32292,4.65966 h 4.96404 c -1.62092,-0.92128 -2.71508,-2.66203 -2.71508,-4.65966 0,-2.95894 2.39887,-5.35782 5.35781,-5.35782 2.95894,0 5.35781,2.39888 5.35781,5.35782 0,1.99763 -1.09416,3.73838 -2.71508,4.65966 h 4.96404 c 0.83365,-1.35779 1.32292,-2.94955 1.32292,-4.65966 0,-4.93174 -3.99789,-8.92969 -8.92969,-8.92969 z" /></g></g></svg>
