<?xml version="1.0" encoding="UTF-8" standalone="no"?>
<!-- Created with Inkscape (http://www.inkscape.org/) -->

<svg
   width="210mm"
   height="297mm"
   viewBox="0 0 210 297"
   version="1.1"
   id="svg1"
   inkscape:version="1.4 (86a8ad7, 2024-10-11)"
   sodipodi:docname="icon_api.svg"
   xmlns:inkscape="http://www.inkscape.org/namespaces/inkscape"
   xmlns:sodipodi="http://sodipodi.sourceforge.net/DTD/sodipodi-0.dtd"
   xmlns="http://www.w3.org/2000/svg"
   xmlns:svg="http://www.w3.org/2000/svg">
  <sodipodi:namedview
     id="namedview1"
     pagecolor="#ffffff"
     bordercolor="#000000"
     borderopacity="0.25"
     inkscape:showpageshadow="2"
     inkscape:pageopacity="0.0"
     inkscape:pagecheckerboard="0"
     inkscape:deskcolor="#d1d1d1"
     inkscape:document-units="mm"
     inkscape:zoom="1.0592242"
     inkscape:cx="396.98867"
     inkscape:cy="561.25984"
     inkscape:window-width="2560"
     inkscape:window-height="1369"
     inkscape:window-x="-8"
     inkscape:window-y="-8"
     inkscape:window-maximized="1"
     inkscape:current-layer="layer1" />
  <defs
     id="defs1" />
  <g
     inkscape:label="Layer 1"
     inkscape:groupmode="layer"
     id="layer1">
    <g
       id="g21"
       transform="translate(46.220784,40.264135)"
       inkscape:export-filename="icon_api.png"
       inkscape:export-xdpi="96"
       inkscape:export-ydpi="96">
      <rect
         style="fill:#ffffff;stroke:none;stroke-width:0.470786;stroke-linejoin:round;paint-order:stroke markers fill"
         id="rect21"
         width="50.799999"
         height="50.799999"
         x="44.795879"
         y="125.62961" />
      <path
         id="path8"
         style="fill:#008066;stroke-width:0.25549;stroke-linejoin:round;paint-order:stroke markers fill"
         d="m 44.795882,125.62961 v 50.8 h 1.5875 v -2.70475 c 0,-0.50522 0.36651,-0.93771 0.86559,-1.02061 l 6.03735,-1.00562 c 0.36344,-1.24858 0.8629,-2.44856 1.48932,-3.58222 l -3.51968,-5.03483 c -0.28901,-0.41103 -0.2392,-0.96969 0.11575,-1.32499 l 4.02508,-4.02456 c 0.35929,-0.35694 0.92114,-0.40459 1.33428,-0.10955 l 5.00125,3.57187 c 1.12341,-0.61498 2.31644,-1.10465 3.55895,-1.46192 l 0.98961,-6.06061 c 0.0818,-0.50121 0.51478,-0.86868 1.02216,-0.86868 h 5.69474 c 0.50318,0 0.93319,0.36243 1.02009,0.85732 l 1.06712,6.09367 c 1.23524,0.35927 2.42619,0.85414 3.55379,1.47743 l 5.014677,-3.60392 c 0.41212,-0.29722 0.97709,-0.25095 1.33635,0.10749 l 4.02715,4.02456 c 0.3549,0.35616 0.40456,0.91602 0.11575,1.32705 l -3.57239,5.09117 c 0.61298,1.1171 1.10282,2.29697 1.46089,3.52485 l 6.11953,1.00046 v -5.2e-4 c 0.50099,0.0818 0.86864,0.51488 0.86764,1.02216 v 2.70475 h 1.5875 v -50.8 z m 9.62526,1.19734 c 2.00312,0 3.576,0.58598 4.71857,1.75803 1.14981,1.17206 2.00323,2.97185 2.56005,5.39967 l -4.33875,1.39733 c -0.15186,-0.70113 -0.31117,-1.214 -0.47749,-1.5384 -0.2748,-0.54417 -0.61099,-0.96273 -1.00872,-1.25574 -0.39774,-0.29301 -0.84255,-0.43977 -1.33429,-0.43977 -1.11365,0 -1.96707,0.64902 -2.56005,1.94665 -0.44835,0.96276 -0.67231,2.4746 -0.67231,4.53616 0,2.5534 0.2674,4.3063 0.80253,5.2586 0.53513,0.94182 1.28718,1.41283 2.2562,1.41283 0.94009,0 1.64869,-0.38174 2.12597,-1.14567 0.48451,-0.76392 0.83518,-1.87336 1.05213,-3.32796 l 4.30671,1.88361 c -0.28926,1.74761 -0.74493,3.20752 -1.36684,4.37957 -0.62191,1.17206 -1.39567,2.05606 -2.32131,2.65256 -0.9184,0.59649 -2.08991,0.89503 -3.51451,0.89503 -1.72833,0 -3.1419,-0.36107 -4.24108,-1.08314 -1.09196,-0.73253 -2.03589,-2.01442 -2.83136,-3.84576 -0.79546,-1.83133 -1.19321,-4.17525 -1.19321,-7.03213 0,-3.80917 0.69774,-6.73454 2.09342,-8.77517 1.40291,-2.0511 3.38439,-3.0763 5.94434,-3.0763 z m 8.00261,0.39222 h 6.46524 l 2.49493,14.00173 2.48357,-14.00173 h 6.44354 v 23.01204 h -4.01371 v -17.54932 l -3.11299,17.54932 h -3.63389 l -3.10213,-17.54932 v 17.54932 h -4.02456 z m 20.336217,0 h 10.48929 v 5.1015 h -7.105 l -0.37982,3.45354 c 0.49174,-0.33487 0.97638,-0.58601 1.45366,-0.75344 0.48451,-0.16744 0.96191,-0.25115 1.43195,-0.25115 1.59093,0 2.8814,0.69591 3.87212,2.08773 0.99071,1.39181 1.48621,3.14471 1.48621,5.25859 0,1.486 -0.25654,2.91413 -0.76998,4.28501 -0.5062,1.37088 -1.22928,2.41779 -2.16937,3.13986 -0.93286,0.72207 -2.12972,1.08314 -3.59048,1.08314 -1.04857,0 -1.94905,-0.14172 -2.70113,-0.42427 -0.74484,-0.29301 -1.38103,-0.72164 -1.90893,-1.28674 -0.52066,-0.57556 -0.943747,-1.22458 -1.269167,-1.94665 -0.32542,-0.72207 -0.59696,-1.62222 -0.8139,-2.70009 l 4.469487,-0.70642 c 0.10847,1.03601 0.3614,1.82623 0.75913,2.3704 0.39773,0.5337 0.87151,0.80047 1.4211,0.80047 0.61468,0 1.12052,-0.33485 1.51825,-1.00459 0.40497,-0.68021 0.60772,-1.68979 0.60772,-3.02928 0,-1.37088 -0.20275,-2.37542 -0.60772,-3.01377 -0.40496,-0.63835 -0.94339,-0.95756 -1.61592,-0.95756 -0.42666,0 -0.83888,0.15179 -1.23661,0.45527 -0.2965,0.21976 -0.62183,0.61713 -0.97617,1.19269 l -3.764107,-0.78496 z m -5.325767,49.21044 c -0.0996,-3.9158 -3.29814,-7.06108 -7.23832,-7.06108 -3.94013,0 -7.1392,3.14528 -7.23883,7.06108 z" />
    </g>
  </g>
</svg>
